<svg width="14" height="24" viewBox="0 0 14 24" fill="none" xmlns="http://www.w3.org/2000/svg">
<path d="M12.0156 18.9844V5.01562H1.98438V18.9844H12.0156ZM12.0156 1.03125C12.5469 1.03125 13 1.23438 13.375 1.64062C13.7812 2.01562 13.9844 2.46875 13.9844 3V21C13.9844 21.5312 13.7812 22 13.375 22.4062C13 22.8125 12.5469 23.0156 12.0156 23.0156H1.98438C1.45312 23.0156 0.984375 22.8125 0.578125 22.4062C0.203125 22 0.015625 21.5312 0.015625 21V3C0.015625 2.46875 0.203125 2 0.578125 1.59375C0.984375 1.1875 1.45312 0.984375 1.98438 0.984375L12.0156 1.03125Z" fill="white"/>
</svg>
